<?xml version="1.0" standalone="no"?>
<!DOCTYPE svg PUBLIC "-//W3C//DTD SVG 20010904//EN"
 "http://www.w3.org/TR/2001/REC-SVG-20010904/DTD/svg10.dtd">
<svg version="1.0" xmlns="http://www.w3.org/2000/svg"
 width="512.000000pt" height="512.000000pt" viewBox="0 0 512.000000 512.000000"
 preserveAspectRatio="xMidYMid meet">

<g transform="translate(0.000000,512.000000) scale(0.100000,-0.100000)"
fill="#000000" stroke="none">
<path d="M2306 4649 c-191 -25 -286 -55 -286 -90 0 -22 35 -40 64 -34 304 67
609 71 891 13 298 -61 600 -203 845 -398 96 -77 263 -245 331 -335 215 -280
352 -603 404 -950 22 -146 22 -423 0 -570 -60 -404 -225 -758 -494 -1059 -61
-69 -71 -92 -49 -114 23 -23 47 -11 108 56 386 421 587 1030 530 1603 -99 982
-859 1757 -1840 1879 -99 12 -405 11 -504 -1z"/>
<path d="M1548 4376 c-86 -31 -181 -108 -210 -170 -7 -17 -22 -26 -50 -30
-107 -17 -206 -97 -256 -204 -22 -47 -26 -71 -26 -137 1 -89 22 -154 75 -231
30 -44 30 -45 20 -114 -42 -269 35 -534 253 -870 36 -55 66 -102 66 -104 0 -2
-11 -1 -25 2 -68 13 -71 -63 -9 -248 29 -86 44 -116 58 -118 38 -8 38 14 -3
143 -54 169 -54 168 13 140 27 -12 50 -36 92 -100 l57 -85 -23 -52 c-39 -91
-12 -202 65 -266 36 -29 119 -62 157 -62 46 0 158 -350 158 -495 0 -28 -4 -34
-27 -39 -44 -11 -127 -72 -160 -119 -56 -78 -76 -128 -81 -204 -5 -71 -4 -73
27 -102 40 -37 120 -64 287 -96 290 -56 477 -70 533 -40 41 21 80 70 112 143
42 92 107 187 185 271 l70 74 36 -49 c19 -27 63 -98 98 -159 84 -147 123 -200
165 -219 30 -15 38 -15 67 -3 40 17 114 95 153 161 l29 49 36 -79 c70 -150
117 -180 233 -144 123 38 133 88 53 258 -25 53 -55 127 -66 163 -35 116 -79
149 -195 149 -58 0 -66 2 -61 18 2 9 10 36 17 58 8 31 24 51 58 77 146 111
268 286 341 487 28 74 28 75 68 81 58 8 106 49 141 122 55 112 64 238 22 332
-25 57 -78 115 -126 136 -41 19 -115 24 -150 10 -16 -6 -31 2 -73 40 -29 27
-88 65 -132 86 -71 34 -80 42 -90 74 -5 20 -23 69 -40 109 -21 52 -27 77 -20
89 17 34 28 135 19 189 -19 121 -111 235 -231 287 l-68 29 0 49 c0 98 -39 144
-152 178 -63 18 -79 29 -166 110 -143 136 -241 196 -412 257 -127 45 -236 64
-365 64 -101 0 -115 2 -132 20 -24 27 -106 68 -168 84 -63 17 -199 17 -247 0z
m203 -50 c65 -14 156 -53 146 -62 -2 -3 -46 -16 -96 -29 -51 -14 -126 -40
-167 -60 -59 -27 -80 -32 -97 -24 -12 5 -51 15 -87 23 l-64 13 49 49 c54 54
102 80 168 93 61 13 75 12 148 -3z m461 -121 c79 -7 215 -44 310 -86 117 -51
189 -101 301 -206 104 -99 111 -104 192 -128 46 -14 89 -33 96 -41 7 -8 14
-39 17 -67 l4 -52 -46 3 c-68 6 -185 -24 -252 -63 -63 -37 -136 -111 -154
-155 l-11 -27 -65 43 c-147 98 -336 109 -496 28 -29 -15 -80 -54 -113 -88
-281 -281 -71 -736 340 -736 181 0 351 99 418 242 20 43 36 58 151 134 123 82
209 124 256 124 38 0 89 -29 110 -62 17 -26 20 -44 17 -89 -6 -70 -33 -124
-90 -176 -62 -57 -94 -71 -315 -142 -327 -105 -472 -194 -580 -355 -67 -99
-93 -178 -99 -298 -5 -86 -3 -107 20 -180 52 -163 162 -281 342 -364 212 -98
539 -110 764 -28 36 12 67 21 69 20 2 -2 -2 -32 -8 -67 -13 -69 -7 -144 16
-227 l15 -53 -37 -66 c-37 -66 -121 -163 -141 -163 -19 0 -71 67 -129 167
-130 224 -171 273 -241 292 -55 15 -260 39 -393 46 -107 6 -381 -7 -436 -21
-21 -6 -24 -3 -24 24 0 91 -69 351 -120 452 l-18 35 37 17 c39 19 81 79 81
117 0 20 -3 22 -31 25 -6 1 -21 -19 -32 -44 -17 -34 -31 -48 -57 -57 -84 -30
-204 19 -246 99 -18 35 -18 121 1 158 38 74 156 98 234 47 22 -15 47 -27 56
-27 22 0 18 34 -8 58 -54 51 -151 66 -227 36 -45 -18 -45 -18 -84 48 -15 25
-15 26 4 21 27 -7 50 14 50 45 0 14 -14 94 -31 179 -18 84 -29 156 -26 160 10
10 112 -57 222 -144 106 -85 128 -95 139 -67 8 21 -3 33 -89 104 -177 144
-281 196 -315 155 -21 -25 -16 -111 14 -244 14 -63 25 -115 24 -117 -2 -1 -19
4 -38 12 -27 11 -51 39 -110 127 -233 350 -308 554 -297 805 2 62 7 115 10
118 3 4 20 -4 36 -16 37 -26 65 -23 69 7 2 15 -5 26 -25 37 -65 36 -65 37 -43
100 22 66 70 159 103 200 l23 28 34 -67 c37 -72 53 -86 76 -63 13 13 10 25
-26 98 l-40 84 37 39 c52 53 185 140 269 176 127 54 345 95 444 85 14 -2 55
-6 92 -9z m-914 -181 c1 -93 0 -97 -32 -139 -43 -56 -89 -137 -111 -197 -10
-27 -21 -48 -25 -48 -4 0 -20 26 -35 58 -24 48 -29 70 -29 137 -1 71 3 86 29
134 35 63 92 115 149 135 22 8 44 15 47 15 4 1 7 -42 7 -95z m161 90 c17 -4
31 -9 30 -13 -1 -14 -128 -100 -134 -90 -4 5 -4 32 0 59 7 48 8 50 40 50 18 0
47 -3 64 -6z m1754 -574 c135 -51 223 -169 221 -300 -1 -70 -19 -123 -60 -177
l-25 -34 -27 53 c-48 94 -138 121 -258 78 -31 -10 -100 -49 -153 -85 -54 -36
-100 -65 -103 -65 -3 0 -7 37 -10 83 -4 83 -36 176 -75 219 -15 17 -15 21 2
57 21 47 85 114 140 147 98 57 235 67 348 24z m-725 -118 c112 -43 202 -135
238 -244 25 -76 16 -196 -20 -268 -70 -140 -206 -221 -371 -221 -135 0 -225
39 -313 136 -67 73 -95 145 -95 248 0 69 4 86 37 151 52 107 139 178 256 211
73 20 197 14 268 -13z m961 -458 c12 -32 20 -58 18 -60 -7 -8 -127 20 -127 30
0 11 70 86 81 86 3 0 16 -25 28 -56z m-19 -119 c39 -8 104 -30 143 -48 74 -35
177 -109 177 -128 0 -6 -11 -25 -24 -42 -38 -50 -48 -83 -30 -101 21 -22 35
-12 66 44 32 58 62 80 117 87 98 13 185 -94 185 -226 -1 -94 -26 -172 -73
-221 -32 -34 -44 -40 -79 -40 -49 0 -100 38 -127 96 -20 43 -43 54 -61 29 -11
-15 -9 -25 11 -66 14 -26 42 -62 64 -79 l39 -32 -19 -56 c-81 -238 -250 -447
-434 -537 -124 -62 -207 -78 -395 -78 -146 0 -176 3 -261 25 -224 60 -374 178
-440 346 -33 82 -33 252 -1 333 53 133 150 244 280 321 97 58 164 85 355 144
83 25 178 59 210 76 66 33 141 98 163 140 17 33 32 34 134 13z m-714 -1540
c65 -9 120 -18 123 -20 2 -3 -23 -33 -56 -67 -74 -78 -127 -156 -186 -275 -26
-50 -57 -99 -69 -107 -46 -32 -258 -15 -548 45 -80 17 -163 40 -185 52 -37 21
-40 26 -43 69 -6 88 76 217 167 262 92 47 264 67 517 60 89 -2 214 -11 280
-19z m774 17 c0 -5 -8 -33 -17 -63 -16 -52 -17 -53 -24 -24 -3 17 -7 45 -8 63
-1 28 2 32 24 32 14 0 25 -4 25 -8z m127 -14 c7 -5 26 -52 43 -104 16 -51 48
-128 71 -170 54 -103 51 -130 -15 -156 -91 -35 -117 -15 -189 150 l-37 82 32
111 c32 107 33 110 58 104 14 -4 30 -11 37 -17z"/>
<path d="M1709 2151 c-22 -18 -22 -21 -9 -35 13 -13 22 -14 52 -4 45 13 65 6
78 -27 19 -51 69 -42 56 10 -4 15 -18 38 -31 51 -31 31 -111 34 -146 5z"/>
<path d="M3240 3410 c-11 -11 -20 -31 -20 -45 0 -30 32 -65 60 -65 24 0 70 42
70 63 0 8 -9 26 -21 41 -25 31 -61 34 -89 6z"/>
<path d="M2266 3208 c-22 -31 -20 -64 4 -88 20 -20 65 -26 86 -12 15 10 34 47
34 66 0 51 -95 76 -124 34z"/>
<path d="M3856 2525 c-55 -55 -34 -215 28 -215 50 0 74 119 38 190 -19 40 -42
48 -66 25z"/>
<path d="M753 3612 c-7 -4 -41 -68 -77 -142 -349 -730 -246 -1590 267 -2225
331 -409 836 -687 1372 -756 131 -16 409 -13 540 6 211 31 504 118 529 158 16
26 -5 52 -40 51 -16 -1 -69 -16 -119 -33 -501 -178 -1075 -142 -1554 99 -216
108 -378 227 -551 406 -218 225 -363 463 -462 757 -168 502 -131 1050 103
1524 50 102 58 126 49 143 -11 20 -36 26 -57 12z"/>
</g>
</svg>
